<svg width="87" height="95" viewBox="0 0 87 95" fill="none" xmlns="http://www.w3.org/2000/svg">
<circle cx="43.5" cy="51.5" r="43.5" fill="#EBF9F3"/>
<path d="M16.8164 0.481262C16.1697 0.827171 15.7185 1.18811 15.3726 1.66937C14.5003 2.90261 14.4251 3.48914 14.4251 9.62523V15.1146L13.0565 16.5434C7.9281 21.8824 4.67959 28.1839 3.44635 35.1923C3.28092 36.1397 3.07037 38.0497 2.96509 39.4183L2.79966 41.9149L2.27328 42.1104C1.98753 42.2157 1.46115 42.5616 1.1002 42.8924C-0.0728705 43.9753 -0.0277522 43.4489 0.017366 54.9841L0.0624843 65.226L0.513667 65.9629C0.799416 66.4141 1.2506 66.8653 1.70178 67.151L2.43871 67.6022L8.39432 67.6473L14.3499 67.6924L15.7035 68.8204C20.847 73.1367 27.1786 75.8739 34.0215 76.7763C36.3676 77.077 40.7742 77.077 43.1805 76.7612C49.6174 75.934 55.8437 73.227 61.0774 68.9858L62.7017 67.6774H68.4467C74.1768 67.6774 74.2068 67.6774 74.9588 67.3165C75.7709 66.9405 76.4627 66.2487 76.7936 65.4666C76.944 65.0756 76.9891 62.9851 76.9891 54.7435C76.9891 44.8325 76.9741 44.4866 76.6883 43.9452C76.5229 43.6444 76.3124 43.2835 76.2071 43.1631C75.8612 42.7571 74.9738 42.1405 74.5678 42.0352C74.1768 41.945 74.1768 41.9299 74.0715 39.9597C73.6203 30.9361 70.2063 23.0855 63.8748 16.4682L62.5663 15.0996L62.5212 9.15901L62.4761 3.21844L62.0249 2.33111C61.5136 1.33851 60.5059 0.45118 59.5434 0.165436C59.1373 0.0451202 53.2569 0 38.3679 0H17.7639L16.8164 0.481262ZM59.0471 2.79733C59.2727 2.96277 59.5885 3.33875 59.7389 3.63954C59.9795 4.1208 59.9946 4.75246 59.9645 11.6104L59.9194 19.07L51.7981 13.4904C44.9251 8.76798 43.6016 7.91074 43.1504 7.91074C42.6992 7.91074 40.6689 9.20413 29.8405 16.4381L17.057 24.9654L17.0119 14.9341C16.9818 9.39964 17.0119 4.60207 17.057 4.24112C17.1773 3.42899 17.7789 2.72214 18.4858 2.5567C18.7715 2.49654 27.9305 2.45142 38.8191 2.45142C58.5658 2.48151 58.626 2.48151 59.0471 2.79733ZM51.7229 16.5885L59.9194 22.2132L59.9645 24.9805C59.9946 27.4319 59.9645 27.8079 59.7239 28.2591C59.408 28.8456 58.626 29.3269 57.9943 29.3269C57.4078 29.3269 56.8363 29.9285 56.8363 30.5751C56.8363 31.4926 57.6484 32.0189 58.7613 31.8084C60.3104 31.5226 61.4985 30.6203 62.1302 29.2517C62.461 28.5298 62.4761 28.3042 62.5513 23.7021L62.6265 18.8895L63.4687 19.8671C68.3565 25.5069 71.0937 32.3498 71.5148 39.9597L71.6201 41.8096H65.0629C60.5811 41.8096 58.3854 41.8698 58.1447 41.975C57.7687 42.1405 57.4379 42.6819 57.4379 43.0879C57.4379 43.494 57.7687 44.0354 58.1447 44.2009C58.3854 44.3212 60.8518 44.3663 66.0855 44.3663H73.6654L74.0865 44.7272L74.5076 45.0882V54.7134V64.3387L74.1467 64.7297L73.7857 65.1207H61.2429H48.7L48.339 64.7447L47.963 64.3838V58.759C47.963 53.2847 47.948 53.1192 47.6472 52.7282C47.4066 52.4124 47.2111 52.3372 46.6847 52.3372C46.1583 52.3372 45.9628 52.4124 45.7222 52.7282C45.4214 53.1192 45.4063 53.2847 45.4063 58.9395C45.4063 64.459 45.4214 64.7748 45.7222 65.4215C45.8876 65.7975 46.2486 66.3239 46.5042 66.5946C47.4818 67.6172 47.3464 67.5872 53.2268 67.6774L58.5658 67.7526L56.8363 68.8956C51.1664 72.6705 45.286 74.4602 38.5032 74.4602C31.6603 74.4602 25.6596 72.6103 19.9145 68.7602L18.4256 67.7526L23.7496 67.6774C29.6149 67.6022 29.5097 67.6172 30.5023 66.6096C31.525 65.602 31.4949 65.8125 31.54 59.12L31.5851 53.044L31.2542 52.6981C30.8331 52.247 29.9458 52.2169 29.4495 52.6229L29.0886 52.9087L29.0134 58.7289L28.9382 64.5492L28.5772 64.835C28.2464 65.1057 27.8102 65.1207 15.7336 65.1207H3.2358L2.8899 64.7898L2.54399 64.474V54.7886V45.1032L2.91997 44.7423L3.28092 44.3663H11.0413H18.8016L19.1926 43.9753C19.5085 43.6444 19.5686 43.494 19.4934 42.9827C19.343 41.8246 19.734 41.8848 12.1542 41.8397L5.3714 41.7946L5.47668 40.1101C5.77746 35.1622 6.78511 31.2068 8.84551 26.9958C10.0637 24.5293 11.4924 22.2884 13.1618 20.3032L14.3499 18.8745L14.4251 23.6871C14.5154 29.0261 14.5304 29.1915 15.6132 30.4248C16.7111 31.673 19.1926 32.2746 19.8544 31.4474C20.5011 30.6503 19.9446 29.3269 18.967 29.3269C18.4858 29.3269 17.6586 28.8155 17.3277 28.3343C17.1322 28.0335 17.6586 27.6725 30.0962 19.3708C39.3605 13.1896 43.1354 10.7532 43.3008 10.8434C43.4211 10.9036 47.2111 13.4904 51.7229 16.5885Z" fill="#80D3A4"/>
<path d="M36.2321 31.4023C35.074 31.7933 34.1416 32.3648 33.2392 33.2672C31.7804 34.726 31.1187 36.3503 31.1187 38.5009C31.1187 40.6515 31.7804 42.2758 33.2392 43.7497C34.8334 45.3288 36.4576 45.9454 38.8489 45.8401C40.6837 45.7499 41.7064 45.404 43.0449 44.3964C46.8499 41.4937 46.8499 35.5081 43.0449 32.6054C41.6462 31.5527 40.6988 31.2369 38.7136 31.1767C37.4202 31.1466 36.8788 31.1917 36.2321 31.4023ZM40.5183 34.1244C44.3233 35.9442 44.2481 41.1779 40.3829 42.9526C39.6009 43.2985 39.3753 43.3436 38.2774 43.2834C36.4125 43.1782 35.0891 42.351 34.1867 40.7267C33.7957 40.0048 33.7506 39.7943 33.7506 38.5009C33.7506 37.2977 33.8107 36.9669 34.0965 36.4255C34.6379 35.4178 35.4199 34.6358 36.4125 34.1395C37.1946 33.7635 37.5104 33.6883 38.4729 33.6883C39.4204 33.6883 39.7663 33.7635 40.5183 34.1244Z" fill="#80D3A4"/>
</svg>
